<svg width="152" height="152" viewBox="0 0 152 152" fill="none" xmlns="http://www.w3.org/2000/svg">
<path d="M149.621 78.0781L142.639 79.9752L142.634 80.0645L149.371 82.6992L149.277 84.4353L140.729 80.8918L140.834 78.943L149.715 76.3462L149.621 78.0781Z" fill="black"/>
<path d="M148.858 86.6507L140.21 85.4774L140.423 83.9108L149.071 85.084L148.858 86.6507Z" fill="black"/>
<path d="M140.001 87.0941L148.534 88.9252L147.343 94.4749L146.048 94.1969L146.907 90.1929L144.59 89.6958L143.793 93.4123L142.497 93.1342L143.294 89.4177L140.965 88.9179L140.099 92.9553L138.803 92.6772L140.001 87.0941Z" fill="black"/>
<path d="M138.055 95.2605L147.099 95.9186L146.52 97.5171L139.954 96.8102L139.927 96.8863L145.384 100.65L144.857 102.104L138.25 101.5L138.224 101.572L143.722 105.237L143.142 106.836L135.776 101.546L136.308 100.08L142.66 100.524L142.684 100.46L137.523 96.7268L138.055 95.2605Z" fill="black"/>
<path d="M133.693 105.83L141.272 110.157L139.649 112.999C139.316 113.582 138.929 114.008 138.486 114.279C138.043 114.552 137.573 114.681 137.077 114.667C136.583 114.656 136.095 114.513 135.614 114.238C135.128 113.961 134.755 113.612 134.494 113.192C134.234 112.771 134.109 112.299 134.12 111.776C134.134 111.254 134.308 110.7 134.642 110.115L135.717 108.232L136.846 108.876L135.876 110.575C135.681 110.915 135.581 111.228 135.576 111.513C135.57 111.797 135.642 112.051 135.79 112.273C135.936 112.497 136.144 112.686 136.413 112.84C136.682 112.993 136.949 113.075 137.214 113.086C137.478 113.1 137.73 113.029 137.969 112.874C138.208 112.723 138.426 112.476 138.622 112.133L139.341 110.875L132.909 107.203L133.693 105.83Z" fill="black"/>
<path d="M130.394 111.467L137.507 116.524L135.611 119.191C135.223 119.738 134.802 120.129 134.349 120.364C133.894 120.602 133.428 120.694 132.95 120.64C132.473 120.591 132.008 120.404 131.554 120.082C131.098 119.758 130.771 119.379 130.573 118.946C130.377 118.517 130.32 118.049 130.404 117.544C130.49 117.041 130.727 116.516 131.115 115.969L132.466 114.069L133.536 114.83L132.309 116.556C132.081 116.876 131.939 117.168 131.883 117.435C131.828 117.703 131.852 117.946 131.954 118.165C132.057 118.388 132.235 118.589 132.487 118.769C132.74 118.948 132.99 119.052 133.239 119.079C133.491 119.108 133.735 119.053 133.973 118.915C134.212 118.779 134.447 118.55 134.675 118.228L135.515 117.047L129.478 112.756L130.394 111.467ZM131.005 117.433L126.53 116.903L127.552 115.465L132.005 116.027L131.005 117.433Z" fill="black"/>
<path d="M124.62 125.495C123.919 124.867 123.437 124.198 123.173 123.489C122.909 122.783 122.847 122.086 122.987 121.398C123.124 120.713 123.448 120.086 123.958 119.517C124.468 118.948 125.058 118.556 125.726 118.343C126.395 118.133 127.095 118.12 127.827 118.304C128.56 118.491 129.275 118.898 129.973 119.523C130.673 120.151 131.155 120.818 131.419 121.524C131.683 122.234 131.746 122.931 131.609 123.617C131.469 124.304 131.144 124.933 130.634 125.502C130.124 126.071 129.536 126.461 128.869 126.672C128.201 126.886 127.501 126.899 126.768 126.711C126.036 126.528 125.32 126.123 124.62 125.495ZM125.681 124.311C126.173 124.753 126.658 125.049 127.135 125.198C127.612 125.351 128.059 125.37 128.475 125.254C128.893 125.141 129.261 124.908 129.578 124.554C129.894 124.201 130.086 123.81 130.153 123.382C130.223 122.956 130.156 122.513 129.954 122.053C129.752 121.598 129.405 121.149 128.912 120.707C128.419 120.265 127.934 119.968 127.457 119.815C126.98 119.666 126.533 119.648 126.114 119.761C125.698 119.876 125.332 120.111 125.015 120.464C124.698 120.817 124.505 121.207 124.436 121.633C124.369 122.061 124.436 122.503 124.638 122.959C124.84 123.419 125.188 123.87 125.681 124.311Z" fill="black"/>
<path d="M124.147 131.687L122.98 132.734L118.883 128.165C118.51 127.744 118.276 127.304 118.18 126.844C118.086 126.386 118.124 125.935 118.293 125.489C118.462 125.048 118.755 124.64 119.172 124.267C119.552 123.925 119.956 123.686 120.382 123.548C120.807 123.414 121.23 123.402 121.648 123.512C122.067 123.621 122.455 123.876 122.814 124.275L121.643 125.325C121.483 125.151 121.31 125.034 121.122 124.974C120.932 124.915 120.74 124.912 120.546 124.963C120.352 125.015 120.168 125.119 119.995 125.274C119.807 125.443 119.682 125.625 119.621 125.821C119.562 126.019 119.569 126.227 119.641 126.444C119.712 126.663 119.848 126.888 120.051 127.118L124.147 131.687Z" fill="black"/>
<path d="M116.581 126.685L121.766 133.705L117.2 137.078L116.413 136.012L119.707 133.578L118.299 131.673L115.242 133.931L114.454 132.865L117.512 130.607L116.096 128.691L112.775 131.144L111.988 130.078L116.581 126.685Z" fill="black"/>
<path d="M107.756 139.3L109.131 138.494C109.303 138.697 109.492 138.854 109.699 138.966C109.908 139.081 110.127 139.154 110.356 139.184C110.584 139.215 110.817 139.202 111.054 139.146C111.29 139.093 111.523 138.999 111.753 138.864C112.163 138.625 112.465 138.309 112.661 137.918C112.858 137.529 112.93 137.085 112.878 136.586C112.827 136.089 112.636 135.557 112.304 134.991C111.967 134.415 111.593 133.982 111.183 133.692C110.772 133.406 110.351 133.254 109.919 133.237C109.486 133.224 109.067 133.336 108.66 133.575C108.434 133.707 108.241 133.86 108.079 134.034C107.916 134.211 107.791 134.405 107.703 134.614C107.613 134.825 107.564 135.048 107.557 135.283C107.547 135.519 107.586 135.76 107.673 136.005L106.294 136.803C106.136 136.415 106.05 136.014 106.038 135.599C106.023 135.187 106.083 134.78 106.217 134.379C106.352 133.98 106.564 133.606 106.853 133.255C107.143 132.908 107.512 132.602 107.961 132.34C108.623 131.952 109.303 131.759 110.002 131.761C110.702 131.763 111.37 131.966 112.008 132.369C112.646 132.772 113.202 133.378 113.676 134.187C114.151 134.999 114.407 135.781 114.443 136.533C114.48 137.289 114.329 137.972 113.988 138.582C113.648 139.193 113.15 139.691 112.493 140.076C112.074 140.321 111.649 140.491 111.22 140.584C110.791 140.678 110.368 140.693 109.953 140.63C109.539 140.57 109.145 140.429 108.771 140.206C108.397 139.988 108.058 139.686 107.756 139.3Z" fill="black"/>
<path d="M108.197 140.791L108.74 142L102.389 144.855L101.846 143.647L104.306 142.54L101.271 135.789L102.701 135.146L105.736 141.897L108.197 140.791Z" fill="black"/>
<path d="M96.2716 144.32C96.4268 144.661 96.6774 144.883 97.0232 144.986C97.3664 145.09 97.7603 145.068 98.2051 144.92C98.5178 144.816 98.7703 144.68 98.9626 144.511C99.1549 144.342 99.2834 144.157 99.3482 143.956C99.413 143.755 99.4121 143.55 99.3457 143.342C99.2883 143.169 99.1994 143.032 99.0791 142.932C98.956 142.832 98.811 142.76 98.6439 142.717C98.4777 142.677 98.3012 142.655 98.1143 142.651C97.9275 142.647 97.7424 142.654 97.5591 142.67L96.7182 142.734C96.3813 142.765 96.048 142.767 95.7183 142.739C95.386 142.712 95.0738 142.642 94.7819 142.53C94.4872 142.418 94.2281 142.252 94.0045 142.03C93.7809 141.808 93.6094 141.517 93.4901 141.159C93.3286 140.674 93.3103 140.205 93.4354 139.753C93.5613 139.304 93.8243 138.898 94.2242 138.534C94.6223 138.174 95.1529 137.884 95.816 137.663C96.4602 137.448 97.0527 137.362 97.5935 137.403C98.1317 137.446 98.5978 137.614 98.9921 137.908C99.3837 138.203 99.6818 138.622 99.8864 139.164L98.4106 139.656C98.2931 139.374 98.1242 139.164 97.9042 139.025C97.6841 138.885 97.4331 138.81 97.151 138.799C96.8662 138.789 96.5675 138.836 96.2548 138.941C95.9287 139.049 95.6591 139.193 95.4461 139.371C95.2313 139.554 95.083 139.756 95.0012 139.978C94.9202 140.202 94.9179 140.434 94.9942 140.672C95.0686 140.886 95.1912 141.043 95.3619 141.142C95.5334 141.244 95.7468 141.304 96.0019 141.324C96.2552 141.348 96.5427 141.348 96.8643 141.325L97.8871 141.254C98.6274 141.202 99.2549 141.288 99.7696 141.512C100.282 141.739 100.638 142.149 100.835 142.742C100.997 143.23 101.008 143.702 100.865 144.156C100.721 144.611 100.453 145.017 100.062 145.371C99.6718 145.729 99.187 146.004 98.6075 146.197C98.0199 146.392 97.471 146.461 96.9607 146.404C96.4486 146.349 96.0058 146.184 95.6322 145.907C95.2595 145.633 94.9915 145.264 94.8281 144.8L96.2716 144.32Z" fill="black"/>
<path d="M73.5076 149.599L71.6374 142.609L71.5481 142.604L68.8875 149.331L67.1518 149.23L70.7281 140.696L72.6766 140.809L75.239 149.699L73.5076 149.599Z" fill="black"/>
<path d="M64.8875 148.792L66.0939 140.149L67.6596 140.367L66.4532 149.011L64.8875 148.792Z" fill="black"/>
<path d="M64.5144 139.934L62.6508 148.46L57.1056 147.248L57.3886 145.953L61.3893 146.827L61.8953 144.513L58.1818 143.701L58.4648 142.406L62.1783 143.218L62.6869 140.891L58.6529 140.009L58.9359 138.714L64.5144 139.934Z" fill="black"/>
<path d="M56.4817 137.981L55.8237 147.025L54.2252 146.446L54.9321 139.88L54.856 139.853L51.0922 145.31L49.6379 144.783L50.2421 138.176L50.17 138.15L46.5049 143.648L44.9064 143.068L50.1958 135.702L51.6621 136.234L51.2182 142.586L51.2823 142.61L55.0154 137.449L56.4817 137.981Z" fill="black"/>
<path d="M45.9299 133.593L41.6022 141.172L38.7602 139.549C38.178 139.216 37.7515 138.829 37.4808 138.386C37.2075 137.943 37.0783 137.473 37.0929 136.977C37.1037 136.483 37.2464 135.995 37.5211 135.514C37.7987 135.028 38.1476 134.655 38.5679 134.394C38.9882 134.134 39.4601 134.009 39.9838 134.02C40.506 134.034 41.0594 134.208 41.6441 134.542L43.5277 135.617L42.8832 136.746L41.1846 135.776C40.8442 135.581 40.5316 135.481 40.2469 135.476C39.9622 135.47 39.7088 135.542 39.4869 135.69C39.2625 135.836 39.0735 136.044 38.9199 136.313C38.7664 136.582 38.6842 136.849 38.6733 137.114C38.66 137.378 38.7308 137.63 38.8855 137.869C39.0364 138.108 39.2833 138.326 39.6262 138.522L40.8844 139.241L44.557 132.809L45.9299 133.593Z" fill="black"/>
<path d="M40.2586 130.26L35.1765 137.355L32.5159 135.449C31.9709 135.059 31.5814 134.636 31.3476 134.182C31.1114 133.726 31.021 133.26 31.0765 132.782C31.128 132.306 31.3159 131.841 31.6401 131.388C31.966 130.933 32.3459 130.608 32.7798 130.412C33.2097 130.217 33.6771 130.162 34.1819 130.247C34.6851 130.335 35.2092 130.574 35.7543 130.965L37.6492 132.322L36.8849 133.389L35.1632 132.156C34.8445 131.927 34.552 131.784 34.2859 131.727C34.0182 131.671 33.7746 131.694 33.5552 131.795C33.3318 131.898 33.1299 132.074 32.9496 132.326C32.7693 132.578 32.6651 132.828 32.637 133.077C32.6073 133.329 32.661 133.573 32.798 133.811C32.9334 134.051 33.1617 134.287 33.4827 134.516L34.6605 135.36L38.9734 129.339L40.2586 130.26ZM34.2906 130.849L34.837 126.376L36.2712 127.404L35.6936 131.854L34.2906 130.849Z" fill="black"/>
<path d="M26.2708 124.453C26.9011 123.755 27.5716 123.275 28.2824 123.014C28.9892 122.753 29.6861 122.693 30.3732 122.835C31.0582 122.975 31.6843 123.301 32.2514 123.814C32.8186 124.326 33.2077 124.916 33.4188 125.585C33.6259 126.255 33.6364 126.955 33.4504 127.687C33.2603 128.419 32.8511 129.132 32.2228 129.828C31.5925 130.526 30.924 131.006 30.2172 131.267C29.5064 131.528 28.8085 131.589 28.1236 131.449C27.4365 131.307 26.8093 130.98 26.2422 130.468C25.675 129.955 25.287 129.366 25.078 128.698C24.8669 128.029 24.8564 127.329 25.0464 126.597C25.2325 125.866 25.6406 125.151 26.2708 124.453ZM27.4505 125.518C27.0068 126.01 26.7096 126.493 26.5589 126.97C26.4041 127.446 26.3836 127.893 26.4974 128.309C26.6092 128.728 26.8412 129.096 27.1933 129.414C27.5454 129.732 27.9354 129.926 28.3633 129.994C28.7893 130.065 29.2325 130.001 29.693 129.8C30.1495 129.6 30.5995 129.254 31.0432 128.763C31.4868 128.272 31.786 127.788 31.9408 127.311C32.0915 126.835 32.111 126.387 31.9991 125.969C31.8854 125.552 31.6525 125.185 31.3004 124.867C30.9483 124.549 30.5592 124.354 30.1332 124.283C29.7053 124.215 29.2631 124.28 28.8066 124.481C28.3462 124.681 27.8941 125.027 27.4505 125.518Z" fill="black"/>
<path d="M20.0905 123.976L19.048 122.805L23.6318 118.725C24.0539 118.353 24.4951 118.121 24.9553 118.027C25.4134 117.935 25.8649 117.974 26.3097 118.145C26.7505 118.315 27.157 118.61 27.529 119.028C27.869 119.41 28.1071 119.814 28.2432 120.24C28.3754 120.667 28.386 121.089 28.2751 121.507C28.1643 121.925 27.9083 122.312 27.5072 122.669L26.4618 121.495C26.6361 121.336 26.7538 121.163 26.815 120.975C26.8744 120.785 26.8785 120.593 26.8274 120.399C26.7763 120.205 26.6734 120.021 26.5185 119.847C26.3504 119.658 26.1685 119.533 25.9729 119.471C25.7752 119.411 25.5676 119.417 25.3501 119.489C25.1307 119.559 24.9055 119.695 24.6744 119.897L20.0905 123.976Z" fill="black"/>
<path d="M25.118 116.435L18.0792 121.594L14.7235 117.016L15.7924 116.233L18.2135 119.536L20.1244 118.135L17.8771 115.069L18.946 114.286L21.1932 117.351L23.1145 115.943L20.6733 112.613L21.7421 111.829L25.118 116.435Z" fill="black"/>
<path d="M12.5472 107.597L13.3477 108.975C13.1445 109.145 12.9864 109.334 12.8733 109.541C12.7578 109.75 12.6843 109.968 12.6528 110.197C12.6213 110.425 12.6333 110.658 12.6889 110.895C12.7406 111.131 12.8336 111.365 12.9677 111.596C13.206 112.006 13.5203 112.309 13.9108 112.507C14.2987 112.705 14.7425 112.779 15.2422 112.729C15.7394 112.68 16.2718 112.49 16.8392 112.161C17.4165 111.825 17.8508 111.453 18.1422 111.044C18.4296 110.634 18.5828 110.213 18.6016 109.782C18.6165 109.349 18.5055 108.929 18.2686 108.521C18.1374 108.295 17.9852 108.101 17.8121 107.939C17.6351 107.776 17.442 107.65 17.2327 107.561C17.0221 107.47 16.7994 107.42 16.5646 107.412C16.3284 107.401 16.0877 107.439 15.8423 107.526L15.0492 106.143C15.4378 105.987 15.8393 105.903 16.2536 105.892C16.6665 105.879 17.0733 105.94 17.4738 106.076C17.8719 106.212 18.2455 106.426 18.5947 106.716C18.9414 107.007 19.2453 107.378 19.5064 107.827C19.8917 108.49 20.082 109.172 20.0774 109.871C20.0729 110.57 19.8678 111.238 19.4621 111.874C19.0564 112.511 18.4482 113.064 17.6376 113.535C16.8245 114.007 16.0415 114.26 15.2887 114.293C14.5334 114.328 13.851 114.174 13.2414 113.832C12.6319 113.489 12.1359 112.989 11.7535 112.33C11.5095 111.91 11.3416 111.486 11.2497 111.056C11.1579 110.626 11.1441 110.204 11.2085 109.789C11.2704 109.375 11.4132 108.982 11.6368 108.609C11.8565 108.235 12.1599 107.897 12.5472 107.597Z" fill="black"/>
<path d="M11.0584 108.068L9.84762 108.607L7.016 102.245L8.22676 101.706L9.3237 104.171L16.086 101.161L16.7237 102.593L9.96142 105.603L11.0584 108.068Z" fill="black"/>
<path d="M7.57775 96.1842C7.23662 96.3382 7.01368 96.5879 6.90893 96.9333C6.80329 97.2761 6.82366 97.6701 6.97004 98.1154C7.07295 98.4285 7.20845 98.6815 7.37654 98.8744C7.54463 99.0674 7.72916 99.1966 7.93013 99.2621C8.13109 99.3277 8.33592 99.3276 8.54462 99.262C8.71735 99.2052 8.85427 99.1168 8.95539 98.9969C9.05562 98.8742 9.12764 98.7294 9.17146 98.5625C9.21258 98.3965 9.23532 98.2201 9.23969 98.0332C9.24406 97.8464 9.23855 97.6613 9.22314 97.4779L9.16196 96.6368C9.13192 96.2998 9.13151 95.9665 9.16073 95.6369C9.18906 95.3046 9.25999 94.9927 9.3735 94.7012C9.48612 94.407 9.65385 94.1485 9.87668 93.9258C10.0995 93.703 10.3904 93.5326 10.7493 93.4146C11.2351 93.2549 11.7037 93.2385 12.1551 93.3652C12.6037 93.4929 13.0091 93.7573 13.3713 94.1586C13.7299 94.5581 14.0183 95.0898 14.2366 95.7537C14.4486 96.3987 14.5328 96.9916 14.4892 97.5322C14.4448 98.0701 14.2748 98.5357 13.9794 98.9289C13.6831 99.3193 13.2632 99.6158 12.7198 99.8184L12.2341 98.3408C12.5157 98.2243 12.7267 98.0563 12.8668 97.8367C13.007 97.6172 13.0831 97.3664 13.095 97.0844C13.1061 96.7997 13.0602 96.5007 12.9572 96.1877C12.8499 95.8611 12.7073 95.591 12.5294 95.3774C12.3479 95.1619 12.1464 95.0128 11.9248 94.9301C11.7006 94.8484 11.4693 94.8451 11.2309 94.9205C11.0159 94.9942 10.8586 95.1162 10.7591 95.2864C10.6568 95.4576 10.5953 95.6707 10.5745 95.9258C10.5501 96.179 10.5489 96.4665 10.5709 96.7882L10.6381 97.8113C10.6871 98.5518 10.5987 99.1789 10.3728 99.6927C10.1434 100.205 9.73183 100.558 9.13808 100.754C8.64959 100.914 8.17836 100.922 7.72437 100.779C7.2695 100.632 6.86545 100.363 6.51223 99.9704C6.1563 99.5791 5.88297 99.0932 5.69223 98.513C5.49883 97.9247 5.43194 97.3755 5.49156 96.8654C5.5476 96.3536 5.71474 95.9114 5.99299 95.5388C6.26855 95.1671 6.63844 94.9005 7.10268 94.7389L7.57775 96.1842Z" fill="black"/>
<path d="M2.45741 70.7084L9.51345 69.1088L9.52206 69.0197L2.90283 66.1021L3.07018 64.3715L11.4608 68.2739L11.273 70.2166L2.29048 72.4347L2.45741 70.7084Z" fill="black"/>
<path d="M3.62506 61.9526L12.21 63.5221L11.9257 65.0773L3.34073 63.5078L3.62506 61.9526Z" fill="black"/>
<path d="M12.4788 61.9666L4.03829 59.7479L5.48132 54.2583L6.76306 54.5952L5.72196 58.5558L8.01343 59.1581L8.97978 55.4819L10.2615 55.8188L9.29517 59.4951L11.599 60.1007L12.6488 56.1071L13.9305 56.444L12.4788 61.9666Z" fill="black"/>
<path d="M14.6831 54.1901L5.67367 53.1598L6.31842 51.5865L12.8491 52.5634L12.8798 52.4885L7.58207 48.503L8.16865 47.0716L14.7452 47.9477L14.7743 47.8767L9.4323 43.9881L10.0771 42.4148L17.2185 48.0034L16.6271 49.4465L10.2983 48.7411L10.2725 48.8042L15.2746 52.7469L14.6831 54.1901Z" fill="black"/>
<path d="M19.402 43.9052L12.0046 39.2744L13.7411 36.5004C14.0969 35.9321 14.5013 35.5216 14.9544 35.269C15.409 35.014 15.8835 34.9038 16.378 34.9385C16.8715 34.9693 17.3531 35.1316 17.8226 35.4256C18.297 35.7225 18.6558 36.0862 18.8991 36.5167C19.1424 36.9472 19.248 37.4239 19.2157 37.9466C19.181 38.4679 18.985 39.0138 18.6277 39.5845L17.4768 41.423L16.3751 40.7334L17.413 39.0755C17.621 38.7432 17.7336 38.4349 17.7506 38.1506C17.7677 37.8664 17.7068 37.6104 17.5678 37.3826C17.4303 37.1524 17.2304 36.9552 16.9679 36.7909C16.7054 36.6266 16.4419 36.5336 16.1772 36.5121C15.914 36.4881 15.6599 36.5486 15.415 36.6936C15.1692 36.8346 14.9415 37.0725 14.732 37.4072L13.9632 38.6353L20.2409 42.5651L19.402 43.9052Z" fill="black"/>
<path d="M23.0142 38.2497L16.129 32.8869L18.1401 30.305C18.5521 29.776 18.9896 29.4038 19.4527 29.1884C19.9175 28.9707 20.3874 28.8991 20.8622 28.9737C21.3366 29.0443 21.7934 29.2507 22.2327 29.5928C22.6742 29.9367 22.9842 30.3294 23.1625 30.7708C23.3404 31.2082 23.3764 31.6774 23.2707 32.1784C23.1627 32.6776 22.9027 33.1917 22.4907 33.7206L21.0584 35.5596L20.0229 34.7531L21.3243 33.0822C21.5653 32.7729 21.7199 32.4865 21.7884 32.2229C21.8546 31.9576 21.8414 31.7133 21.7489 31.49C21.6559 31.2627 21.4872 31.0539 21.2429 30.8636C20.9986 30.6733 20.7526 30.5592 20.505 30.5211C20.2551 30.4813 20.0085 30.5251 19.7653 30.6526C19.5197 30.7782 19.2757 30.9968 19.033 31.3083L18.1427 32.4514L23.9857 37.0024L23.0142 38.2497ZM22.6648 32.2628L27.1123 32.9883L26.0282 34.3801L21.6043 33.6244L22.6648 32.2628Z" fill="black"/>
<path d="M29.3197 24.5312C29.9918 25.1888 30.4443 25.878 30.6772 26.5987C30.91 27.3153 30.9417 28.0141 30.7723 28.695C30.6049 29.3738 30.254 29.9863 29.7196 30.5326C29.1851 31.0788 28.5794 31.444 27.9024 31.6282C27.2253 31.8083 26.525 31.7908 25.8015 31.5757C25.0779 31.3566 24.381 30.9192 23.7109 30.2636C23.0388 29.6059 22.5863 28.9188 22.3535 28.2021C22.1206 27.4814 22.0879 26.7817 22.2553 26.1028C22.4246 25.422 22.7765 24.8084 23.311 24.2622C23.8455 23.716 24.4502 23.3518 25.1252 23.1696C25.8022 22.9855 26.5025 23.003 27.2261 23.2221C27.9497 23.4372 28.6475 23.8736 29.3197 24.5312ZM28.2081 25.6673C27.7349 25.2044 27.2634 24.8881 26.7935 24.7184C26.3235 24.5448 25.8781 24.5064 25.4573 24.6034C25.0344 24.6984 24.6571 24.9155 24.3253 25.2546C23.9935 25.5937 23.7847 25.9757 23.6989 26.4005C23.6111 26.8233 23.6582 27.2688 23.8401 27.7369C24.0219 28.201 24.3494 28.6645 24.8225 29.1275C25.2957 29.5904 25.7672 29.9087 26.2372 30.0824C26.7071 30.252 27.1535 30.2893 27.5764 30.1943C27.9972 30.0973 28.3735 29.8793 28.7053 29.5402C29.0371 29.201 29.2469 28.8201 29.3347 28.3972C29.4205 27.9724 29.3724 27.528 29.1906 27.0639C29.0087 26.5958 28.6812 26.1302 28.2081 25.6673Z" fill="black"/>
<path d="M30.1873 18.2211L31.3995 17.2262L35.2925 21.9697C35.6471 22.4063 35.8622 22.8564 35.9376 23.32C36.0113 23.7815 35.9539 24.231 35.7654 24.6686C35.5774 25.1023 35.2671 25.4966 34.8345 25.8517C34.4392 26.1761 34.0257 26.3978 33.5942 26.5167C33.163 26.6317 32.7407 26.6255 32.3274 26.498C31.914 26.3705 31.537 26.0992 31.1964 25.6841L32.4119 24.6866C32.5637 24.867 32.7321 24.9916 32.9171 25.0603C33.1043 25.1272 33.2959 25.139 33.4919 25.0957C33.6879 25.0524 33.876 24.9569 34.056 24.8091C34.2515 24.6487 34.3839 24.472 34.4534 24.279C34.5211 24.0838 34.5234 23.8762 34.4603 23.656C34.3994 23.434 34.2727 23.2035 34.0802 22.9645L30.1873 18.2211Z" fill="black"/>
<path d="M37.5458 23.5246L32.6734 16.2841L37.3826 13.1152L38.1225 14.2147L34.725 16.501L36.0477 18.4667L39.2013 16.3445L39.9412 17.4441L36.7876 19.5662L38.1175 21.5425L41.5433 19.2372L42.2832 20.3367L37.5458 23.5246Z" fill="black"/>
<path d="M46.8083 11.3585L45.3988 12.1024C45.2366 11.8924 45.0545 11.7268 44.8523 11.6054C44.6488 11.4815 44.4335 11.3992 44.2064 11.3585C43.9793 11.3177 43.7461 11.3203 43.507 11.3662C43.269 11.4083 43.0319 11.4917 42.7957 11.6163C42.3761 11.8378 42.06 12.1395 41.8473 12.5216C41.6332 12.9012 41.5412 13.3417 41.5713 13.843C41.6001 14.3418 41.7676 14.8813 42.0739 15.4617C42.3855 16.0522 42.7398 16.5012 43.1367 16.8089C43.5347 17.1128 43.949 17.2829 44.3793 17.3192C44.8108 17.3516 45.2351 17.2578 45.6522 17.0377C45.8833 16.9157 46.0835 16.7715 46.2526 16.6051C46.423 16.4349 46.5567 16.2471 46.6539 16.0416C46.7536 15.8348 46.8123 15.6143 46.83 15.3801C46.8502 15.1445 46.822 14.9024 46.7454 14.6538L48.1589 13.9174C48.2997 14.3121 48.367 14.7166 48.3609 15.131C48.3573 15.5441 48.2797 15.948 48.1283 16.3428C47.9755 16.735 47.7472 17.0997 47.4432 17.4367C47.138 17.7713 46.7554 18.0599 46.2957 18.3026C45.6173 18.6606 44.9289 18.8232 44.2305 18.7902C43.5321 18.7573 42.8732 18.5252 42.2537 18.094C41.6343 17.6629 41.1058 17.0327 40.6682 16.2036C40.2293 15.372 40.0085 14.5794 40.0059 13.8259C40.002 13.0699 40.1835 12.3943 40.5504 11.7991C40.9173 11.2039 41.4374 10.7286 42.1108 10.3733C42.5404 10.1465 42.9717 9.99598 43.4047 9.92166C43.8377 9.84733 44.2603 9.85075 44.6725 9.93192C45.0835 10.0106 45.4707 10.1692 45.8343 10.4077C46.1991 10.6424 46.5238 10.9593 46.8083 11.3585Z" fill="black"/>
<path d="M46.3906 9.84032L45.9018 8.60845L52.3741 6.04053L52.8629 7.2724L50.3556 8.26719L53.0853 15.1474L51.6277 15.7258L48.8979 8.84552L46.3906 9.84032Z" fill="black"/>
<path d="M58.4015 6.83884C58.2618 6.49161 58.0215 6.25848 57.6808 6.13946C57.3427 6.01967 56.9482 6.02364 56.4972 6.15138C56.1801 6.24119 55.9217 6.36606 55.7219 6.52599C55.5221 6.68591 55.3853 6.86491 55.3115 7.06298C55.2377 7.26105 55.2292 7.4657 55.2861 7.67695C55.3356 7.85188 55.4183 7.99236 55.5339 8.09838C55.6523 8.20362 55.794 8.2816 55.9589 8.33232C56.1231 8.3803 56.2984 8.41036 56.4849 8.42249C56.6714 8.43463 56.8566 8.43681 57.0404 8.42903L57.8834 8.40287C58.2213 8.38686 58.5544 8.40031 58.8825 8.4432C59.2133 8.48532 59.522 8.56915 59.8085 8.69468C60.0977 8.81943 60.349 8.99776 60.5624 9.22965C60.7757 9.46155 60.9338 9.75926 61.0368 10.1228C61.1761 10.6148 61.1731 11.0837 61.0277 11.5294C60.8815 11.9723 60.6004 12.3664 60.1844 12.7116C59.7704 13.0533 59.2272 13.3193 58.5548 13.5098C57.9015 13.6948 57.3057 13.7543 56.7673 13.6883C56.2317 13.6215 55.7736 13.4324 55.393 13.1209C55.0152 12.8086 54.7364 12.3768 54.5566 11.8254L56.0532 11.4015C56.1579 11.6878 56.317 11.9055 56.5305 12.0547C56.744 12.2038 56.9914 12.2902 57.2727 12.3139C57.5567 12.3368 57.8573 12.3034 58.1743 12.2135C58.5051 12.1199 58.7809 11.9886 59.0018 11.8197C59.2246 11.6474 59.3819 11.4522 59.4737 11.2343C59.5647 11.0136 59.5776 10.7827 59.5122 10.5413C59.4475 10.3235 59.3322 10.1612 59.1662 10.0547C58.9994 9.94546 58.789 9.87513 58.5351 9.84372C58.2831 9.8088 57.9959 9.79566 57.6735 9.80429L56.6485 9.82887C55.9067 9.84707 55.2837 9.73267 54.7797 9.48567C54.2777 9.23517 53.9415 8.80924 53.7712 8.2079C53.6311 7.71316 53.6423 7.24198 53.8049 6.79437C53.9702 6.34598 54.2561 5.95348 54.6627 5.61686C55.0686 5.27751 55.5653 5.02461 56.153 4.85815C56.7489 4.68938 57.3004 4.64537 57.8075 4.72614C58.3166 4.8034 58.7514 4.98878 59.1121 5.28228C59.472 5.57304 59.7231 5.9537 59.8652 6.42425L58.4015 6.83884Z" fill="black"/>
<path d="M84.2878 2.72695L85.5878 9.84429L85.6764 9.85666L88.8712 3.36667L90.5932 3.60701L86.3396 11.8252L84.4066 11.5554L82.5701 2.4872L84.2878 2.72695Z" fill="black"/>
<path d="M92.5141 4.15347L90.618 12.6723L89.0748 12.3288L90.9709 3.80998L92.5141 4.15347Z" fill="black"/>
<path d="M92.1125 12.9712L94.6493 4.62074L100.08 6.27066L99.6951 7.53872L95.7767 6.34835L95.088 8.61537L98.725 9.72027L98.3398 10.9883L94.7028 9.88343L94.0104 12.1627L97.9614 13.363L97.5761 14.631L92.1125 12.9712Z" fill="black"/>
<path d="M100.134 15.5785L101.533 6.61883L103.079 7.32759L101.835 13.8126L101.908 13.8464L106.108 8.71667L107.514 9.36147L106.369 15.8966L106.439 15.9286L110.543 10.7506L112.089 11.4593L106.212 18.3655L104.794 17.7154L105.759 11.4209L105.697 11.3924L101.552 16.2286L100.134 15.5785Z" fill="black"/>
<path d="M110.573 20.9323L115.524 13.7456L118.219 15.6025C118.771 15.9829 119.164 16.4049 119.396 16.8687C119.631 17.3341 119.72 17.813 119.664 18.3054C119.611 18.7971 119.428 19.2711 119.114 19.7273C118.796 20.1881 118.417 20.5306 117.976 20.7548C117.535 20.9789 117.054 21.0634 116.534 21.0081C116.014 20.9505 115.478 20.7307 114.923 20.3487L113.137 19.1181L113.874 18.0478L115.485 19.1576C115.808 19.38 116.111 19.506 116.394 19.5355C116.677 19.5651 116.936 19.5154 117.17 19.3866C117.406 19.2594 117.611 19.0683 117.787 18.8133C117.963 18.5583 118.067 18.2991 118.1 18.0356C118.136 17.7738 118.087 17.5173 117.953 17.2662C117.823 17.0144 117.595 16.7765 117.27 16.5525L116.077 15.7304L111.875 21.8292L110.573 20.9323Z" fill="black"/>
<path d="M115.736 24.5419L121.371 17.877L123.87 19.9898C124.382 20.4226 124.736 20.8747 124.933 21.3461C125.132 21.8193 125.185 22.2916 125.091 22.7631C125.002 23.2343 124.777 23.6824 124.418 24.1077C124.056 24.5351 123.652 24.829 123.203 24.9896C122.759 25.1498 122.289 25.167 121.793 25.0413C121.298 24.9134 120.795 24.633 120.283 24.2002L118.503 22.6953L119.35 21.693L120.967 23.0603C121.267 23.3134 121.547 23.4794 121.807 23.5584C122.07 23.6352 122.315 23.6318 122.541 23.5483C122.772 23.4644 122.988 23.3043 123.188 23.0678C123.387 22.8313 123.511 22.5901 123.559 22.3442C123.609 22.0961 123.575 21.8479 123.458 21.5998C123.342 21.3494 123.133 21.0968 122.832 20.8418L121.725 19.9065L116.944 25.5625L115.736 24.5419ZM121.733 24.4325L120.83 28.8473L119.482 27.7084L120.415 23.3183L121.733 24.4325Z" fill="black"/>
<path d="M129.21 31.404C128.526 32.0493 127.819 32.4739 127.09 32.6778C126.364 32.8818 125.665 32.8856 124.991 32.6892C124.32 32.4948 123.722 32.1197 123.197 31.5638C122.673 31.008 122.332 30.3881 122.175 29.7043C122.022 29.0206 122.067 28.3215 122.311 27.6071C122.559 26.8929 123.024 26.2141 123.706 25.5707C124.39 24.9254 125.095 24.5007 125.82 24.2967C126.549 24.0929 127.25 24.0881 127.922 24.2825C128.595 24.4789 129.194 24.8551 129.719 25.4109C130.243 25.9668 130.583 26.5856 130.738 27.2673C130.895 27.9512 130.849 28.6502 130.601 29.3645C130.358 30.0789 129.894 30.7587 129.21 31.404ZM128.119 30.2479C128.6 29.7936 128.935 29.3351 129.123 28.8724C129.316 28.4097 129.372 27.9662 129.292 27.5418C129.214 27.1155 129.012 26.7298 128.686 26.3847C128.361 26.0396 127.987 25.8158 127.566 25.7131C127.147 25.6085 126.7 25.6377 126.225 25.8007C125.754 25.9639 125.278 26.2726 124.797 26.7268C124.315 27.1811 123.978 27.6395 123.786 28.1022C123.598 28.565 123.543 29.0095 123.621 29.4358C123.701 29.8602 123.904 30.2449 124.229 30.59C124.555 30.9351 124.927 31.1599 125.346 31.2646C125.767 31.3672 126.213 31.337 126.684 31.1738C127.159 31.0108 127.637 30.7022 128.119 30.2479Z" fill="black"/>
<path d="M135.488 32.5326L136.434 33.7837L131.538 37.4834C131.088 37.8203 130.629 38.0171 130.163 38.0739C129.699 38.129 129.252 38.0536 128.822 37.8478C128.397 37.6426 128.015 37.3167 127.678 36.8702C127.369 36.4622 127.164 36.0402 127.063 35.6042C126.965 35.1688 126.988 34.7471 127.132 34.3392C127.276 33.9313 127.562 33.5655 127.991 33.2417L128.939 34.4962C128.752 34.6407 128.621 34.8039 128.545 34.986C128.471 35.1704 128.451 35.3614 128.487 35.559C128.522 35.7566 128.61 35.9483 128.751 36.1342C128.903 36.3359 129.074 36.4753 129.264 36.5525C129.457 36.6279 129.664 36.6385 129.887 36.5843C130.111 36.5323 130.346 36.415 130.593 36.2323L135.488 32.5326Z" fill="black"/>
<path d="M129.901 39.6824L137.332 35.1061L140.309 39.9393L139.18 40.6342L137.033 37.1472L135.015 38.3896L137.008 41.6262L135.88 42.3212L133.887 39.0845L131.858 40.3336L134.024 43.8497L132.895 44.5446L129.901 39.6824Z" fill="black"/>
<path d="M141.706 49.4808L141.02 48.0422C141.236 47.8887 141.409 47.7134 141.539 47.5163C141.671 47.318 141.762 47.1063 141.812 46.881C141.862 46.6558 141.869 46.4227 141.832 46.1819C141.8 45.9424 141.727 45.7021 141.612 45.4611C141.407 45.0328 141.119 44.7046 140.746 44.4765C140.375 44.2471 139.939 44.1373 139.437 44.1469C138.937 44.1553 138.391 44.3007 137.799 44.5831C137.196 44.8704 136.733 45.206 136.409 45.59C136.09 45.9754 135.903 46.3823 135.849 46.8108C135.799 47.2407 135.875 47.6684 136.078 48.0941C136.191 48.33 136.327 48.5359 136.486 48.7117C136.649 48.8889 136.831 49.0302 137.033 49.1356C137.235 49.2436 137.453 49.3113 137.686 49.3385C137.921 49.3684 138.164 49.3501 138.416 49.2836L139.094 50.7259C138.694 50.8506 138.287 50.9014 137.873 50.8783C137.46 50.8579 137.06 50.7639 136.672 50.5965C136.286 50.4279 135.931 50.1849 135.607 49.8674C135.285 49.5488 135.012 49.1548 134.788 48.6855C134.458 47.9931 134.324 47.2987 134.385 46.6022C134.447 45.9057 134.705 45.2568 135.161 44.6555C135.617 44.0541 136.269 43.5517 137.115 43.1483C137.964 42.7436 138.765 42.5554 139.518 42.5835C140.273 42.6104 140.941 42.8193 141.521 43.2102C142.1 43.601 142.554 44.1401 142.882 44.8273C143.091 45.2659 143.223 45.7029 143.28 46.1386C143.337 46.5742 143.316 46.9964 143.218 47.405C143.123 47.8123 142.948 48.1928 142.695 48.5464C142.446 48.9013 142.116 49.2128 141.706 49.4808Z" fill="black"/>
<path d="M143.255 49.1791L144.506 48.7416L146.804 55.3143L145.553 55.7518L144.663 53.2056L137.676 55.649L137.158 54.1688L144.145 51.7253L143.255 49.1791Z" fill="black"/>
<path d="M145.766 61.3726C146.119 61.2476 146.361 61.0173 146.495 60.6818C146.628 60.349 146.641 59.9547 146.532 59.4987C146.456 59.1782 146.342 58.9147 146.19 58.7085C146.039 58.5022 145.866 58.358 145.671 58.276C145.476 58.194 145.272 58.177 145.058 58.225C144.882 58.2672 144.738 58.3439 144.627 58.455C144.517 58.5689 144.433 58.7072 144.376 58.8699C144.321 59.0319 144.283 59.2058 144.264 59.3917C144.244 59.5775 144.234 59.7624 144.234 59.9464L144.225 60.7897C144.227 61.128 144.199 61.4602 144.143 61.7862C144.087 62.115 143.99 62.4199 143.853 62.7009C143.716 62.9847 143.527 63.2284 143.287 63.4318C143.046 63.6353 142.742 63.7808 142.375 63.8685C141.877 63.9872 141.409 63.9646 140.97 63.8007C140.533 63.6362 140.151 63.3389 139.824 62.9088C139.5 62.4809 139.256 61.927 139.094 61.2473C138.937 60.5868 138.902 59.989 138.99 59.4539C139.08 58.9215 139.288 58.4717 139.615 58.1045C139.943 57.7401 140.386 57.4796 140.944 57.3229L141.305 58.8359C141.015 58.9285 140.791 59.0784 140.633 59.2855C140.475 59.4926 140.378 59.7362 140.343 60.0162C140.308 60.2991 140.329 60.6007 140.405 60.9213C140.485 61.2557 140.605 61.5367 140.764 61.7644C140.927 61.9943 141.115 62.1596 141.329 62.2604C141.546 62.3606 141.776 62.383 142.02 62.3278C142.241 62.2723 142.407 62.1638 142.521 62.0024C142.637 61.8403 142.716 61.6331 142.758 61.3807C142.803 61.1303 142.828 60.844 142.833 60.5215L142.852 59.4964C142.864 58.7544 143.005 58.1368 143.272 57.6435C143.544 57.1524 143.983 56.8343 144.591 56.6892C145.091 56.5699 145.562 56.6008 146.002 56.7819C146.443 56.9658 146.823 57.2679 147.143 57.6882C147.465 58.1079 147.697 58.6147 147.839 59.2089C147.982 59.8113 148.003 60.3641 147.901 60.8674C147.803 61.3728 147.6 61.7996 147.291 62.1477C146.986 62.4951 146.595 62.73 146.119 62.8524L145.766 61.3726Z" fill="black"/>
</svg>
