<svg width="209" height="208" viewBox="0 0 209 208" fill="none" xmlns="http://www.w3.org/2000/svg">
<path d="M196.949 142.714C199.637 152.383 193.879 162.379 184.18 164.88C177.403 166.628 172.266 172.176 171.033 179.08C169.269 188.96 159.753 195.463 149.931 193.499C143.068 192.126 136.038 194.891 131.939 200.576C126.072 208.711 114.683 210.431 106.684 204.39C101.095 200.17 93.5643 199.604 87.4101 202.942C78.6029 207.721 67.5966 204.318 63.0052 195.398C59.7972 189.166 53.2564 185.382 46.2664 185.713C36.2623 186.188 27.8194 178.337 27.5445 168.304C27.3525 161.293 23.0979 155.039 16.6566 152.299C7.43738 148.377 3.22957 137.632 7.32581 128.473C10.1879 122.073 9.06216 114.589 4.44511 109.319C-2.16307 101.776 -1.30233 90.2662 6.35371 83.795C11.703 79.2734 13.9291 72.0408 12.0508 65.2855C9.36243 55.6165 15.1212 45.6204 24.8206 43.1192C31.5976 41.3716 36.7348 35.823 37.9672 28.9197C39.7312 19.0394 49.2473 12.5372 59.0691 14.5013C65.9315 15.8736 72.9618 13.1083 77.0615 7.42456C82.9284 -0.710352 94.3168 -2.43067 102.316 3.60968C107.904 7.8301 115.436 8.39575 121.59 5.05723C130.398 0.279092 141.403 3.68133 145.995 12.6017C149.203 18.8342 155.744 22.6188 162.734 22.2869C172.738 21.8118 181.181 29.6627 181.456 39.6961C181.647 46.7064 185.902 52.9604 192.343 55.7007C201.563 59.6227 205.771 70.3678 201.674 79.5269C198.812 85.926 199.938 93.411 204.555 98.6805C211.163 106.223 210.302 117.733 202.646 124.204C197.298 128.726 195.071 135.958 196.949 142.714Z" fill="#FC7EFF"/>
</svg>
